<svg xmlns="http://www.w3.org/2000/svg" width="60.772" height="44" viewBox="0 0 60.772 44"><defs><style>.a{fill:#fff;}</style></defs><g transform="translate(0 0)"><path class="a" d="M393.246,118.8a8.261,8.261,0,0,0,11.683-11.683h0a8.261,8.261,0,0,0-11.683,0l-11.7,11.7a1.45,1.45,0,0,0,2.05,2.05l11.7-11.7a5.362,5.362,0,1,1,0,7.583,1.45,1.45,0,0,0-2.051,2.049Z" transform="translate(-346.576 -95.21)"/><path class="a" d="M39.575,9.924,25.889,23.609a1.45,1.45,0,0,0,2.05,2.05L41.625,11.974a1.45,1.45,0,1,0-2.05-2.05ZM24.9,7.611a13.053,13.053,0,0,0-2.639-3.791h0a13.042,13.042,0,1,0,0,18.442l10.291-10.29a1.45,1.45,0,0,0-2.05-2.05L20.213,20.213a10.143,10.143,0,1,1,0-14.342h0A10.169,10.169,0,0,1,22.267,8.82,1.45,1.45,0,1,0,24.9,7.611Z" transform="translate(0 0)"/><path class="a" d="M123.552,122.8a2.1,2.1,0,1,0-2.1,2.1,2.1,2.1,0,0,0,2.1-2.1" transform="translate(-108.532 -109.759)"/><path class="a" d="M8.885,365.128a2.231,2.231,0,0,1-.179.916,1.833,1.833,0,0,1-.491.663,2.2,2.2,0,0,1-.75.406,3.035,3.035,0,0,1-.941.141H5.7q-.405,0-.652-.013v.013a3.025,3.025,0,0,1-.94-.141,2.185,2.185,0,0,1-.75-.406,1.84,1.84,0,0,1-.491-.663,2.231,2.231,0,0,1-.179-.916v-3.123a2.279,2.279,0,0,1,.1-.713,1.82,1.82,0,0,1,.246-.5,1.263,1.263,0,0,1,.325-.32,1.688,1.688,0,0,1,.351-.179l.209.049c-.066.18-.123.349-.172.5-.041.14-.08.279-.117.418a1.368,1.368,0,0,0-.055.332v3.319A1.5,1.5,0,0,0,3.931,366a1.354,1.354,0,0,0,1.021.369H6.525A1.357,1.357,0,0,0,7.546,366a1.5,1.5,0,0,0,.356-1.082v-6.442l.062-.074.86-.123.062.05Zm-3.541-8.175-.062-.062v-1.02l.062-.062H6.366l.062.062v1.021l-.062.062H5.345Zm9.441,6.59v.886h-.418a2.387,2.387,0,0,1-.658-.08,1.85,1.85,0,0,1-.48-.209,1.244,1.244,0,0,1-.325-.289,1.622,1.622,0,0,1-.2-.32v1.451a2.453,2.453,0,0,1-.535,1.684,1.848,1.848,0,0,1-1.457.6,2.168,2.168,0,0,1-.8-.135,2.775,2.775,0,0,1-.621-.344l-.024-.074L9.66,366l.062-.013a1.243,1.243,0,0,0,.258.2,1.54,1.54,0,0,0,.3.135,1.182,1.182,0,0,0,.387.061.889.889,0,0,0,.356-.08,1.007,1.007,0,0,0,.344-.258,1.365,1.365,0,0,0,.258-.455,2.058,2.058,0,0,0,.1-.683v-6.418l.062-.073.86-.123.062.049V363.2q.271.1.5.172c.14.041.276.08.412.117a1.315,1.315,0,0,0,.338.055h.823Zm6.872,0h2.63l-.024-.049v-7.806l.062-.073.86-.123.062.049v7.622l.307,1.082-.062.073-.738.111H19.186a2.952,2.952,0,0,1-1.07-.185,2.045,2.045,0,0,1-.8-.541,2.038,2.038,0,0,1-.8.541,2.952,2.952,0,0,1-1.07.185h-.836v-.886h.836a1.36,1.36,0,0,0,1.014-.369,1.48,1.48,0,0,0,.363-1.082v-1.758a2.224,2.224,0,0,1,.179-.915,1.826,1.826,0,0,1,.491-.664,2.195,2.195,0,0,1,.75-.406,3.2,3.2,0,0,1,1.881,0,2.186,2.186,0,0,1,.75.406,1.841,1.841,0,0,1,.491.664,2.23,2.23,0,0,1,.179.915v2.827Zm-3.848-1.451a1.5,1.5,0,0,0,.356,1.082,1.354,1.354,0,0,0,1.021.369h1.4l-.024-.049v-2.963a1.46,1.46,0,0,0-.363-1.075,1.609,1.609,0,0,0-2.035,0,1.475,1.475,0,0,0-.356,1.075Zm10.671-6.553v8.827l-.062.062h-.873l-.049-.062v-8.679l.062-.073.86-.123Zm10.928,6.577a1.48,1.48,0,0,0,.375,1.063,1.353,1.353,0,0,0,1,.363c.14,0,.258,0,.356.006s.176.006.234.006a1.369,1.369,0,0,0,.16.013v.886c-.082,0-.168,0-.258-.013-.073,0-.156,0-.246-.006s-.172-.006-.246-.006a3.332,3.332,0,0,1-.744-.08,2.108,2.108,0,0,1-.634-.252v1.032a2.231,2.231,0,0,1-.179.916,1.833,1.833,0,0,1-.491.663,2.213,2.213,0,0,1-.751.406,3.033,3.033,0,0,1-.94.141h-.824q-.405,0-.652-.013v.013a3.025,3.025,0,0,1-.94-.141,2.2,2.2,0,0,1-.751-.406,1.83,1.83,0,0,1-.491-.663,2.231,2.231,0,0,1-.179-.916v-.712a2.283,2.283,0,0,1,.1-.713,1.846,1.846,0,0,1,.246-.5,1.263,1.263,0,0,1,.325-.32,1.689,1.689,0,0,1,.351-.179l.209.049q-.1.271-.172.5-.061.209-.117.418a1.368,1.368,0,0,0-.055.332v.91A1.5,1.5,0,0,0,34.453,366a1.354,1.354,0,0,0,1.021.369h1.574A1.357,1.357,0,0,0,38.068,366a1.5,1.5,0,0,0,.356-1.082v-9.195l.062-.073.86-.123.062-.037v6.626Zm8.336,1.427h1.266v.886H45.274a2.952,2.952,0,0,1-1.07-.185,2.045,2.045,0,0,1-.8-.541,2.042,2.042,0,0,1-.8.541,2.953,2.953,0,0,1-1.07.185H41.3v-.886h.234a1.36,1.36,0,0,0,1.014-.369,1.48,1.48,0,0,0,.363-1.082v-1.758a2.209,2.209,0,0,1,.179-.915,1.826,1.826,0,0,1,.491-.664,2.2,2.2,0,0,1,.75-.406,3.2,3.2,0,0,1,1.881,0,2.186,2.186,0,0,1,.75.406,1.831,1.831,0,0,1,.491.664,2.23,2.23,0,0,1,.179.915v2.827ZM43.9,362.092a1.5,1.5,0,0,0,.356,1.082,1.355,1.355,0,0,0,1.021.369h1.4l-.024-.049v-2.963a1.456,1.456,0,0,0-.363-1.075,1.609,1.609,0,0,0-2.035,0,1.475,1.475,0,0,0-.356,1.075Zm9.306,1.266a.738.738,0,0,0,.437.172c.16.008.317.013.473.013H56.4v.886H54.175c-.066,0-.156,0-.27-.013a2.31,2.31,0,0,1-.374-.062,2.429,2.429,0,0,1-.431-.153,1.58,1.58,0,0,1-.424-.289,1.639,1.639,0,0,1-.517.356,2.138,2.138,0,0,1-.836.16H48.939v-.886h2.729a1.225,1.225,0,0,0,.258-.037c.107-.024.218-.053.332-.086l-2.422-3.086a1.793,1.793,0,0,1,.314-.916,2.378,2.378,0,0,1,.694-.663,3.443,3.443,0,0,1,.928-.406,3.781,3.781,0,0,1,1.014-.141,3.97,3.97,0,0,1,1,.129,3.133,3.133,0,0,1,.9.387,2.465,2.465,0,0,1,.689.658,2.1,2.1,0,0,1,.356.953,1.419,1.419,0,0,1-.19.891,4.054,4.054,0,0,1-.652.873,6.334,6.334,0,0,1-.867.744A7.4,7.4,0,0,1,53.2,363.358Zm-.172-.381a7.023,7.023,0,0,0,.535-.48,6.347,6.347,0,0,0,.541-.6,3.783,3.783,0,0,0,.424-.67,1.561,1.561,0,0,0,.172-.694,1.11,1.11,0,0,0-.179-.626,1.523,1.523,0,0,0-.455-.449,2.157,2.157,0,0,0-.621-.27,2.553,2.553,0,0,0-.664-.092,2.3,2.3,0,0,0-1.174.3,1.5,1.5,0,0,0-.694.9Zm3.2.566h2.5l-.024-.049v-7.806l.062-.073.86-.123.062.049v7.622l.307,1.082-.062.073-.738.111H56.227Zm6.282-8v8.827l-.062.062h-.873l-.05-.062v-8.679l.062-.073.861-.123Z" transform="translate(-2.446 -323.267)"/></g></svg>